<svg height="2062" width="720" xmlns="http://www.w3.org/2000/svg">
<rect height="2062" fill="#555" width="720"></rect>
<text fill="#7f7" font-family="Courier New" font-size="12" xml:space="preserve">
<tspan x="10" y="26"></tspan>
<tspan x="10" y="42">&gt; npmdoc-blessed@0.0.3 test /home/travis/build/npmdoc/node-npmdoc-blessed</tspan>
<tspan x="10" y="58">&gt; (set -e; export PORT=$(utility2 shServerPortRandom); utility2 test test.js)</tspan>
<tspan x="10" y="74"></tspan>
<tspan x="10" y="90"></tspan>
<tspan x="10" y="106">[MODE_BUILD=npmTest] - 2017-04-03T10:12:36Z - npm-testing /home/travis/build/npmdoc/node-npmdoc-\</tspan>
<tspan x="10" y="122">blessed</tspan>
<tspan x="10" y="138"></tspan>
<tspan x="10" y="154"></tspan>
<tspan x="10" y="170">covering $ /home/travis/.nvm/versions/node/v7.8.0/bin/node /home/travis/build/npmdoc/node-npmdoc\</tspan>
<tspan x="10" y="186">-blessed/test.js</tspan>
<tspan x="10" y="202">merging file:///home/travis/build/npmdoc/node-npmdoc-blessed/tmp/build/test-report.json to test-\</tspan>
<tspan x="10" y="218">report</tspan>
<tspan x="10" y="234">&gt; server listening on http-port 41074</tspan>
<tspan x="10" y="250">created apidoc file:///home/travis/build/npmdoc/node-npmdoc-blessed/tmp/build/apidoc.html</tspan>
<tspan x="10" y="266"></tspan>
<tspan x="10" y="282"></tspan>
<tspan x="10" y="298">browserTest - created electron entry-page /home/travis/build/npmdoc/node-npmdoc-blessed/tmp/elec\</tspan>
<tspan x="10" y="314">tron.15b334d5c240.f92d82c1551c9.html</tspan>
<tspan x="10" y="330"></tspan>
<tspan x="10" y="346">Xlib:  extension "RANDR" missing on display ":99.0".</tspan>
<tspan x="10" y="362">merging file:///home/travis/build/npmdoc/node-npmdoc-blessed/tmp/build/test-report.json to test-\</tspan>
<tspan x="10" y="378">report</tspan>
<tspan x="10" y="394">Xlib:  extension "RANDR" missing on display ":99.0".</tspan>
<tspan x="10" y="410">[6336:0403/101240:WARNING:audio_manager.cc(314)] Multiple instances of AudioManager detected</tspan>
<tspan x="10" y="426">[6336:0403/101240:WARNING:audio_manager.cc(275)] Multiple instances of AudioManager detected</tspan>
<tspan x="10" y="442">[6356:0403/101240:ERROR:sandbox_linux.cc(343)] InitializeSandbox() called with multiple threads \</tspan>
<tspan x="10" y="458">in process gpu-process. </tspan>
<tspan x="10" y="474">[6336:0403/101240:ERROR:browser_gpu_channel_host_factory.cc(131)] Failed to create channel.</tspan>
<tspan x="10" y="490"></tspan>
<tspan x="10" y="506">browserTest - opened url /home/travis/build/npmdoc/node-npmdoc-blessed/tmp/build/apidoc.html</tspan>
<tspan x="10" y="522"></tspan>
<tspan x="10" y="538">[node test-case 1 of 6 passed] - testCase_buildLib_default</tspan>
<tspan x="10" y="554">[node test-case 2 of 6 passed] - testCase_buildReadme_default</tspan>
<tspan x="10" y="570">[node test-case 3 of 6 passed] - testCase_buildTest_default</tspan>
<tspan x="10" y="586"></tspan>
<tspan x="10" y="602">browserTest - created electron entry-page /home/travis/build/npmdoc/node-npmdoc-blessed/tmp/elec\</tspan>
<tspan x="10" y="618">tron.15b334d69df0.2b92f77ac87e1.html</tspan>
<tspan x="10" y="634"></tspan>
<tspan x="10" y="650">(node:6307) DeprecationWarning: node --debug is deprecated. Please use node --inspect instead.</tspan>
<tspan x="10" y="666">Xlib:  extension "RANDR" missing on display ":99.0".</tspan>
<tspan x="10" y="682">&gt; server listening on http-port 60285</tspan>
<tspan x="10" y="698">merging file:///home/travis/build/npmdoc/node-npmdoc-blessed/tmp/build/test-report.json to test-\</tspan>
<tspan x="10" y="714">report</tspan>
<tspan x="10" y="730">Xlib:  extension "RANDR" missing on display ":99.0".</tspan>
<tspan x="10" y="746">[6395:0403/101243:WARNING:audio_manager.cc(314)] Multiple instances of AudioManager detected</tspan>
<tspan x="10" y="762">[6395:0403/101243:WARNING:audio_manager.cc(275)] Multiple instances of AudioManager detected</tspan>
<tspan x="10" y="778">[6427:0403/101243:ERROR:sandbox_linux.cc(343)] InitializeSandbox() called with multiple threads \</tspan>
<tspan x="10" y="794">in process gpu-process. </tspan>
<tspan x="10" y="810">[6395:0403/101243:ERROR:browser_gpu_channel_host_factory.cc(131)] Failed to create channel.</tspan>
<tspan x="10" y="826"></tspan>
<tspan x="10" y="842">browserTest - opened url http://127.0.0.1:41074?modeTest=1</tspan>
<tspan x="10" y="858"></tspan>
<tspan x="10" y="874">[6395:0403/101245:INFO:CONSOLE(245)] "----------|-----------|-----------|-----------|-----------\</tspan>
<tspan x="10" y="890">|</tspan>
<tspan x="10" y="906">File      |   % Stmts |% Branches |   % Funcs |   % Lines |</tspan>
<tspan x="10" y="922">----------|-----------|-----------|-----------|-----------|</tspan>
<tspan x="10" y="938">----------|-----------|-----------|-----------|-----------|</tspan>
<tspan x="10" y="954">All files |       100 |       100 |       100 |       100 |</tspan>
<tspan x="10" y="970">----------|-----------|-----------|-----------|-----------|</tspan>
<tspan x="10" y="986">", source: file:///home/travis/build/npmdoc/node-npmdoc-blessed/tmp/electron.15b334d69df0.2b92f7\</tspan>
<tspan x="10" y="1002">7ac87e1.html (245)</tspan>
<tspan x="10" y="1018">[6395:0403/101245:INFO:CONSOLE(245)] "created coverage file:///tmp/build/coverage.html/index.htm\</tspan>
<tspan x="10" y="1034">l", source: file:///home/travis/build/npmdoc/node-npmdoc-blessed/tmp/electron.15b334d69df0.2b92f\</tspan>
<tspan x="10" y="1050">77ac87e1.html (245)</tspan>
<tspan x="10" y="1066">[node test-case 4 of 6 passed] - testCase_buildApp_default</tspan>
<tspan x="10" y="1082"></tspan>
<tspan x="10" y="1098">browserTest - created screenCapture file:///home/travis/build/npmdoc/node-npmdoc-blessed/tmp/bui\</tspan>
<tspan x="10" y="1114">ld/screenCapture.npmTest.browser._2Fhome_2Ftravis_2Fbuild_2Fnpmdoc_2Fnode-npmdoc-blessed_2Ftmp_2\</tspan>
<tspan x="10" y="1130">Fbuild_2Fapidoc.html.png</tspan>
<tspan x="10" y="1146"></tspan>
<tspan x="10" y="1162">browserTest - created screenCapture file:///home/travis/build/npmdoc/node-npmdoc-blessed/tmp/bui\</tspan>
<tspan x="10" y="1178">ld/screenCapture.npmTest.browser._2Fhome_2Ftravis_2Fbuild_2Fnpmdoc_2Fnode-npmdoc-blessed_2Ftmp_2\</tspan>
<tspan x="10" y="1194">Fbuild_2Fapidoc.html.html</tspan>
<tspan x="10" y="1210"></tspan>
<tspan x="10" y="1226">browserTest - exit-code 0 - /home/travis/build/npmdoc/node-npmdoc-blessed/tmp/build/apidoc.html</tspan>
<tspan x="10" y="1242"></tspan>
<tspan x="10" y="1258">[node test-case 5 of 6 passed] - testCase_buildApidoc_default</tspan>
<tspan x="10" y="1274"></tspan>
<tspan x="10" y="1290">browserTest - created screenCapture file:///home/travis/build/npmdoc/node-npmdoc-blessed/tmp/bui\</tspan>
<tspan x="10" y="1306">ld/screenCapture.npmTest.browser..png</tspan>
<tspan x="10" y="1322"></tspan>
<tspan x="10" y="1338">browserTest - created screenCapture file:///home/travis/build/npmdoc/node-npmdoc-blessed/tmp/bui\</tspan>
<tspan x="10" y="1354">ld/screenCapture.npmTest.browser..html</tspan>
<tspan x="10" y="1370">[6395:0403/101254:WARNING:ipc_message_attachment_set.cc(57)] MessageAttachmentSet destroyed with\</tspan>
<tspan x="10" y="1386"> unconsumed descriptors: 0/1</tspan>
<tspan x="10" y="1402"></tspan>
<tspan x="10" y="1418">browserTest - exit-code 0 - http://127.0.0.1:41074?modeTest=1</tspan>
<tspan x="10" y="1434"></tspan>
<tspan x="10" y="1450"></tspan>
<tspan x="10" y="1466">browserTest - merged coverage from /home/travis/build/npmdoc/node-npmdoc-blessed/tmp/coverage.np\</tspan>
<tspan x="10" y="1482">mTest.browser.%2F.json</tspan>
<tspan x="10" y="1498"></tspan>
<tspan x="10" y="1514"></tspan>
<tspan x="10" y="1530">browserTest - merging test-report from /home/travis/build/npmdoc/node-npmdoc-blessed/tmp/test-re\</tspan>
<tspan x="10" y="1546">port.npmTest.browser.%2F.json</tspan>
<tspan x="10" y="1562"></tspan>
<tspan x="10" y="1578">[node test-case 6 of 6 passed] - testCase_webpage_default</tspan>
<tspan x="10" y="1594">----------------------------|-----------|-----------|-----------|-----------|</tspan>
<tspan x="10" y="1610">File                        |   % Stmts |% Branches |   % Funcs |   % Lines |</tspan>
<tspan x="10" y="1626">----------------------------|-----------|-----------|-----------|-----------|</tspan>
<tspan x="10" y="1642">   node-npmdoc-blessed/     |       100 |       100 |       100 |       100 |</tspan>
<tspan x="10" y="1658">      example.js            |       100 |       100 |       100 |       100 |</tspan>
<tspan x="10" y="1674">      lib.npmdoc_blessed.js |       100 |       100 |       100 |       100 |</tspan>
<tspan x="10" y="1690">      test.js               |       100 |       100 |       100 |       100 |</tspan>
<tspan x="10" y="1706">----------------------------|-----------|-----------|-----------|-----------|</tspan>
<tspan x="10" y="1722">All files                   |       100 |       100 |       100 |       100 |</tspan>
<tspan x="10" y="1738">----------------------------|-----------|-----------|-----------|-----------|</tspan>
<tspan x="10" y="1754"></tspan>
<tspan x="10" y="1770">created coverage file:///home/travis/build/npmdoc/node-npmdoc-blessed/tmp/build/coverage.html/in\</tspan>
<tspan x="10" y="1786">dex.html</tspan>
<tspan x="10" y="1802">merging file:///home/travis/build/npmdoc/node-npmdoc-blessed/tmp/build/test-report.json to test-\</tspan>
<tspan x="10" y="1818">report</tspan>
<tspan x="10" y="1834"></tspan>
<tspan x="10" y="1850">-------------------------------------------------------</tspan>
<tspan x="10" y="1866">| test-report - buildNpmdoc - node - linux v7.8.0 - 2017-04-03T10:11:58.498Z</tspan>
<tspan x="10" y="1882">|   54483 ms            0 failed        6 passed      |</tspan>
<tspan x="10" y="1898">-------------------------------------------------------</tspan>
<tspan x="10" y="1914"></tspan>
<tspan x="10" y="1930">created test-report file:///home/travis/build/npmdoc/node-npmdoc-blessed/tmp/build/test-report.h\</tspan>
<tspan x="10" y="1946">tml</tspan>
<tspan x="10" y="1962"></tspan>
<tspan x="10" y="1978"></tspan>
<tspan x="10" y="1994">npmTest - 0 failed tests</tspan>
<tspan x="10" y="2010"></tspan>
<tspan x="10" y="2026"></tspan>
<tspan x="10" y="2042">[MODE_BUILD=npmTest] - 2017-04-03T10:12:55Z - EXIT_CODE - 0</tspan>
</text>
</svg>
